# xmcd
#
# Track frame offsets:
#	150
#	4970
#	22545
#	33097
#	50562
#	63372
#	74890
#	84110
#	97487
#	105047
#
# Disc length: 1533 seconds
#
# Revision: 0
# Processed by: cddbd v1.5.2PL0 Copyright (c) Steve Scherf et al.
# Submitted via: audiograbber 1.83.01
#
DISCID=7405fb0a
DTITLE=Lee Hazlewood - "requiem for an almost lady"
DYEAR=1900
DGENRE=
TTITLE0=I´m Glad I Never...
TTITLE1=If It´s Monday Morning
TTITLE2=L.A. Lady
TTITLE3=Won´t You Tell Your Dreams
TTITLE4=I´ll Live Yesterdays
TTITLE5=Little Miss Sunshine (Little Miss Rain)
TTITLE6=Stone Lost Child
TTITLE7=Come On Home Do Me
TTITLE8=Must Have Been Something I Loved
TTITLE9=I´d Rather Be Your Enemy
EXTD=
EXTT0=
EXTT1=
EXTT2=
EXTT3=
EXTT4=
EXTT5=
EXTT6=
EXTT7=
EXTT8=
EXTT9=
PLAYORDER=
